<svg width="13" height="15" viewBox="0 0 13 15" fill="none" xmlns="http://www.w3.org/2000/svg">
<path d="M3.75 8.0003C3.33586 8.0003 2.99976 7.6642 2.99976 7.25005C2.99976 6.83591 3.33586 6.50052 3.75 6.50052H8.25C8.66415 6.50052 9.00024 6.83591 9.00024 7.25005C9.00024 7.6642 8.66415 8.0003 8.25 8.0003H3.75ZM3.75 11.0005C3.33586 11.0005 2.99976 10.6644 2.99976 10.2503C2.99976 9.83615 3.33586 9.50006 3.75 9.50006H6.75024C7.16439 9.50006 7.49978 9.83615 7.49978 10.2503C7.49978 10.6644 7.16439 11.0005 6.75024 11.0005H3.75ZM9.74976 12.9397L11.4696 11.2198C11.7628 10.9273 12.2374 10.9273 12.5306 11.2198C12.8231 11.513 12.8231 11.9876 12.5306 12.2808L10.2806 14.5308C9.98742 14.8233 9.51281 14.8233 9.21961 14.5308L7.71985 13.0304C7.42665 12.7379 7.42665 12.2626 7.71985 11.9701C8.01235 11.6769 8.48766 11.6769 8.78016 11.9701L9.74976 12.9397ZM5.24976 12.5002C5.66391 12.5002 6 12.8363 6 13.2505C6 13.6646 5.66391 14 5.24976 14H2.25024C1.00713 14 0.000244141 12.9931 0.000244141 11.75V2.75C0.000244141 1.50759 1.00713 0.5 2.25024 0.5H9.74976C10.9929 0.5 11.9998 1.50759 11.9998 2.75V8.75048C11.9998 9.16463 11.6644 9.50002 11.2502 9.50002C10.8361 9.50002 10.5 9.16463 10.5 8.75048V2.75C10.5 2.33586 10.1639 2.00046 9.74975 2.00046H2.25023C1.83608 2.00046 1.49999 2.33586 1.49999 2.75V11.75C1.49999 12.1641 1.83608 12.5002 2.25023 12.5002L5.24976 12.5002ZM3.75 4.99998C3.33586 4.99998 2.99976 4.66459 2.99976 4.25044C2.99976 3.8363 3.33586 3.5002 3.75 3.5002H8.25C8.66415 3.5002 9.00024 3.8363 9.00024 4.25044C9.00024 4.66459 8.66415 4.99998 8.25 4.99998H3.75Z" fill="#000000"/>
</svg>
