<svg width="24" height="24" viewBox="0 0 24 24" fill="none" xmlns="http://www.w3.org/2000/svg">
<g clip-path="url(#clip0)">
<path d="M4.95991 19.1592H21.308C21.358 19.1592 21.4065 19.1521 21.4531 19.141C21.4568 19.141 21.4599 19.1416 21.4636 19.1416C21.8126 19.1416 22.0961 18.8584 22.0961 18.5091V0.632502C22.0962 0.283359 21.8126 0 21.4636 0H21.3092H5.97149H4.96079C3.27726 0 1.90786 1.36972 1.90786 3.05278C1.90786 3.07536 1.9123 3.09678 1.91449 3.11857C1.9123 4.67331 1.89302 18.9594 1.9123 20.8375C1.9111 20.8742 1.9066 20.91 1.9066 20.9471C1.9066 22.5655 3.1738 23.8904 4.76773 23.9905C4.7997 23.9954 4.83105 24.0001 4.86423 24.0001H21.4636C21.8126 24.0001 22.0961 23.7169 22.0961 23.3676V20.9867C22.0961 20.6377 21.8125 20.3542 21.4636 20.3542C21.1146 20.3542 20.8311 20.6378 20.8311 20.9867V22.7351H4.95991C3.99874 22.7351 3.21414 21.972 3.17558 21.0204C3.17652 21.0034 3.1796 20.9874 3.17929 20.9701C3.17866 20.9423 3.17772 20.8991 3.17709 20.8416C3.23237 19.905 4.00972 19.1592 4.95991 19.1592ZM5.39119 3.05278C5.39119 2.70364 5.67455 2.42028 6.02369 2.42028C6.37283 2.42028 6.65619 2.70364 6.65619 3.05278V15.9006C6.65619 16.2496 6.37283 16.5331 6.02369 16.5331C5.67455 16.5331 5.39119 16.2495 5.39119 15.9006V3.05278Z" fill="#0078BA"/>
</g>
<defs>
<clipPath id="clip0">
<rect width="24" height="24" fill="white"/>
</clipPath>
</defs>
</svg>
