<svg width="92" height="92" viewBox="0 0 92 92" fill="none" xmlns="http://www.w3.org/2000/svg">
<path d="M46 0.6875C33.98 0.6875 22.457 5.4609 13.961 13.9605C5.461 22.4566 0.688 33.9805 0.688 45.9995C0.688 58.0185 5.4614 69.5425 13.961 78.0385C22.4571 86.5385 33.981 91.3115 46 91.3115C58.019 91.3115 69.543 86.5381 78.039 78.0385C86.539 69.5424 91.312 58.0185 91.312 45.9995C91.312 33.9805 86.5386 22.4565 78.039 13.9605C69.5429 5.4605 58.019 0.6875 46 0.6875ZM70.609 28.6255L42.39 60.8915C42.0931 61.2274 41.6673 61.4228 41.2181 61.4228C40.8744 61.4267 40.5384 61.3173 40.265 61.1103L21.624 46.7663C20.9365 46.2389 20.8076 45.2584 21.3349 44.5709C21.8623 43.8834 22.8427 43.7545 23.5302 44.2819L40.9992 57.7349L68.2492 26.4849C68.8195 25.8326 69.8078 25.7661 70.4601 26.3365C71.1125 26.9068 71.1789 27.8951 70.6086 28.5474L70.609 28.6255Z" fill="#4FC4AC"/>
</svg>
