<svg width="18" height="18" viewBox="0 0 18 18" fill="none" xmlns="http://www.w3.org/2000/svg">
<path d="M8.87986 0.000804267C3.91018 0.0664299 -0.0656583 4.15112 0.000821701 9.1208C0.0664473 14.0886 4.15114 18.0637 9.12082 17.9989C14.0895 17.9323 18.0663 13.8476 17.9999 8.87888C17.9342 3.91016 13.8505 -0.0649557 8.87986 0.000804267V0.000804267ZM9.77331 3.0356C10.7211 3.0356 11.0005 3.57373 11.0005 4.1878C11.0005 4.9556 10.3714 5.66624 9.30082 5.66624C8.40457 5.66624 7.97708 5.22469 8.00144 4.49531C8.00238 3.88124 8.52737 3.03656 9.77331 3.03656V3.0356ZM7.70237 15.0001C7.08363 15.0001 6.62893 14.5979 7.06299 12.8288L7.77454 9.69299C7.89736 9.18954 7.91892 8.98892 7.77454 8.98892C7.58892 8.98892 6.78361 9.33673 6.30829 9.67799L5.9989 9.13612C7.50735 7.78892 9.2389 7.0005 9.98242 7.0005C10.6021 7.0005 10.7052 7.78424 10.3959 8.99082L9.58213 12.2879C9.43775 12.8701 9.50057 13.0707 9.64307 13.0707C9.82869 13.0707 10.4381 12.8289 11.0371 12.3254L11.3877 12.8289C9.92149 14.3973 8.32223 15.0011 7.70159 15.0011L7.70237 15.0001Z" fill="#333333"/>
</svg>
