<?xml version="1.0" encoding="utf-8"?>
<!-- Generator: Adobe Illustrator 22.0.0, SVG Export Plug-In . SVG Version: 6.00 Build 0)  -->
<svg version="1.1" id="Layer_1" xmlns="http://www.w3.org/2000/svg" xmlns:xlink="http://www.w3.org/1999/xlink" x="0px" y="0px"
	 viewBox="0 0 220 280" style="enable-background:new 0 0 220 280;" xml:space="preserve">
<style type="text/css">
	.st0{fill:#F9F9F9;}
	.st1{fill:#8F8E94;}
</style>
<path class="st0" d="M8,0h204c4.4,0,8,3.6,8,8v264c0,4.4-3.6,8-8,8H8c-4.4,0-8-3.6-8-8V8C0,3.6,3.6,0,8,0z"/>
<path class="st1" d="M63.2,222.6h93.6c11.9,0,21.5-9.6,21.5-21.5c0-7.2-3.6-13.9-9.6-18.1c-9.6-6.5-18.4-11.4-24.1-14.3
	c-5.2,6.2-12,11.7-21,15c-4.3,1.5-8.9,2.4-13.6,2.4s-9.1-0.7-13.4-2.2c-8.9-3.1-16-8.6-21.2-15c-5.7,2.9-14.3,7.9-24.1,14.3
	c-6,4-9.6,10.8-9.6,18.1C41.7,213,51.3,222.6,63.2,222.6L63.2,222.6z"/>
<path class="st1" d="M66.1,132.3c1,3.4,2.8,10,6.9,13.8c3.1,11.5,12,24.8,26.5,29.8c3.4,1.2,7.1,1.9,10.7,1.9
	c3.8,0,7.4-0.7,10.8-1.9c14.4-5.2,23.4-18.4,26.5-29.8c4.1-3.8,5.8-10.3,6.9-13.8c1.5-5.5,3.1-13.2-1-18.7c-0.2-0.2-0.3-0.3-0.5-0.7
	c1.9-9.1,5.3-34.9-14.3-47c0,0,4.3-3.4,4-8.4c0,0-23.4,2.6-34.7,0.3c-11.2-2.4-23.4,6.4-25.5,15c-0.2,0-0.2,0.2-0.3,0.2
	c-2.1,0.2-20,2.1-15.1,34.4c0.2,1.7,0.3,3.6,0.7,5.5c-0.2,0.2-0.3,0.3-0.5,0.7C63,119,64.6,126.8,66.1,132.3L66.1,132.3z
	 M76.5,117.2H77c0,0,2.4-33.4,29.4-21.8c14.1,6,24.6,5.7,31.3,4.1c8.6,5.8,6,15.8,5.5,17.4v0.2h0.5c2.8,0,5.7,2.2,2.6,12.9
	c-2.4,8.4-4.6,10.8-6.2,10.8c-1.5,10-9.5,22.7-22,27.2c-2.6,0.9-5.3,1.4-8.1,1.4c-2.8,0-5.5-0.5-8.1-1.4
	c-12.7-4.5-20.5-17.2-22-27.2c-1.7-0.2-4-2.6-6.2-10.8C70.8,119.2,73.7,117.2,76.5,117.2L76.5,117.2z"/>
</svg>
